%TF.GenerationSoftware,KiCad,Pcbnew,9.0.7-9.0.7~ubuntu24.04.1*%
%TF.CreationDate,2026-02-24T02:36:53-05:00*%
%TF.ProjectId,null-key,6e756c6c-2d6b-4657-992e-6b696361645f,rev?*%
%TF.SameCoordinates,Original*%
%TF.FileFunction,Soldermask,Top*%
%TF.FilePolarity,Negative*%
%FSLAX46Y46*%
G04 Gerber Fmt 4.6, Leading zero omitted, Abs format (unit mm)*
G04 Created by KiCad (PCBNEW 9.0.7-9.0.7~ubuntu24.04.1) date 2026-02-24 02:36:53*
%MOMM*%
%LPD*%
G01*
G04 APERTURE LIST*
G04 Aperture macros list*
%AMRoundRect*
0 Rectangle with rounded corners*
0 $1 Rounding radius*
0 $2 $3 $4 $5 $6 $7 $8 $9 X,Y pos of 4 corners*
0 Add a 4 corners polygon primitive as box body*
4,1,4,$2,$3,$4,$5,$6,$7,$8,$9,$2,$3,0*
0 Add four circle primitives for the rounded corners*
1,1,$1+$1,$2,$3*
1,1,$1+$1,$4,$5*
1,1,$1+$1,$6,$7*
1,1,$1+$1,$8,$9*
0 Add four rect primitives between the rounded corners*
20,1,$1+$1,$2,$3,$4,$5,0*
20,1,$1+$1,$4,$5,$6,$7,0*
20,1,$1+$1,$6,$7,$8,$9,0*
20,1,$1+$1,$8,$9,$2,$3,0*%
G04 Aperture macros list end*
%ADD10C,2.000000*%
%ADD11RoundRect,0.250000X0.500000X-0.750000X0.500000X0.750000X-0.500000X0.750000X-0.500000X-0.750000X0*%
%ADD12RoundRect,0.635000X0.000010X-0.635000X0.000010X0.635000X-0.000010X0.635000X-0.000010X-0.635000X0*%
%ADD13RoundRect,0.200000X-0.200000X-0.275000X0.200000X-0.275000X0.200000X0.275000X-0.200000X0.275000X0*%
%ADD14C,1.879600*%
%ADD15R,2.350000X2.350000*%
%ADD16C,2.350000*%
%ADD17R,1.700000X1.700000*%
%ADD18C,1.700000*%
G04 APERTURE END LIST*
D10*
%TO.C,MUTE MICS*%
X128000000Y-68500000D03*
X137000000Y-68500000D03*
D11*
X130000000Y-75650000D03*
X130000000Y-61350000D03*
X135000000Y-75650000D03*
X135000000Y-61350000D03*
%TD*%
D12*
%TO.C,U1*%
X32500000Y-77780000D03*
X35040000Y-77780000D03*
X37580000Y-77780000D03*
X40120000Y-77780000D03*
X42660000Y-77780000D03*
X45200000Y-77780000D03*
X47740000Y-77780000D03*
X50280000Y-77780000D03*
X52820000Y-77780000D03*
X55360000Y-77780000D03*
X57900000Y-77780000D03*
X60440000Y-77780000D03*
X60440000Y-60000000D03*
X57900000Y-60000000D03*
X55360000Y-60000000D03*
X52820000Y-60000000D03*
X50280000Y-60000000D03*
X47740000Y-60000000D03*
X45200000Y-60000000D03*
X42660000Y-60000000D03*
X40120000Y-60000000D03*
X37580000Y-60000000D03*
X35040000Y-60000000D03*
X32500000Y-60000000D03*
%TD*%
D13*
%TO.C,R3*%
X69175000Y-75000000D03*
X70825000Y-75000000D03*
%TD*%
D10*
%TO.C,LOCK SCRN*%
X96950000Y-68850000D03*
X105950000Y-68850000D03*
D11*
X98950000Y-76000000D03*
X98950000Y-61700000D03*
X103950000Y-76000000D03*
X103950000Y-61700000D03*
%TD*%
D13*
%TO.C,R1*%
X69175000Y-72000000D03*
X70825000Y-72000000D03*
%TD*%
D10*
%TO.C,BOSS MODE*%
X112500000Y-68850000D03*
X121500000Y-68850000D03*
D11*
X114500000Y-76000000D03*
X114500000Y-61700000D03*
X119500000Y-76000000D03*
X119500000Y-61700000D03*
%TD*%
D14*
%TO.C,J1*%
X76972700Y-64500000D03*
X79512700Y-64627000D03*
X82052700Y-64373000D03*
%TD*%
D15*
%TO.C,D1*%
X86920000Y-66500000D03*
D16*
X86920000Y-71580000D03*
X92000000Y-71580000D03*
X92000000Y-66500000D03*
%TD*%
D13*
%TO.C,R2*%
X69175000Y-73500000D03*
X70825000Y-73500000D03*
%TD*%
D17*
%TO.C,J2*%
X66920000Y-64540000D03*
D18*
X66920000Y-62000000D03*
X69460000Y-64540000D03*
X69460000Y-62000000D03*
X72000000Y-64540000D03*
X72000000Y-62000000D03*
%TD*%
M02*
