%TF.GenerationSoftware,KiCad,Pcbnew,9.0.7-9.0.7~ubuntu24.04.1*%
%TF.CreationDate,2026-02-24T02:36:53-05:00*%
%TF.ProjectId,null-key,6e756c6c-2d6b-4657-992e-6b696361645f,rev?*%
%TF.SameCoordinates,Original*%
%TF.FileFunction,Legend,Top*%
%TF.FilePolarity,Positive*%
%FSLAX46Y46*%
G04 Gerber Fmt 4.6, Leading zero omitted, Abs format (unit mm)*
G04 Created by KiCad (PCBNEW 9.0.7-9.0.7~ubuntu24.04.1) date 2026-02-24 02:36:53*
%MOMM*%
%LPD*%
G01*
G04 APERTURE LIST*
%ADD10C,0.150000*%
%ADD11C,0.120000*%
%ADD12C,0.203200*%
G04 APERTURE END LIST*
D10*
X128642857Y-79954819D02*
X128642857Y-78954819D01*
X128642857Y-78954819D02*
X128976190Y-79669104D01*
X128976190Y-79669104D02*
X129309523Y-78954819D01*
X129309523Y-78954819D02*
X129309523Y-79954819D01*
X129785714Y-78954819D02*
X129785714Y-79764342D01*
X129785714Y-79764342D02*
X129833333Y-79859580D01*
X129833333Y-79859580D02*
X129880952Y-79907200D01*
X129880952Y-79907200D02*
X129976190Y-79954819D01*
X129976190Y-79954819D02*
X130166666Y-79954819D01*
X130166666Y-79954819D02*
X130261904Y-79907200D01*
X130261904Y-79907200D02*
X130309523Y-79859580D01*
X130309523Y-79859580D02*
X130357142Y-79764342D01*
X130357142Y-79764342D02*
X130357142Y-78954819D01*
X130690476Y-78954819D02*
X131261904Y-78954819D01*
X130976190Y-79954819D02*
X130976190Y-78954819D01*
X131595238Y-79431009D02*
X131928571Y-79431009D01*
X132071428Y-79954819D02*
X131595238Y-79954819D01*
X131595238Y-79954819D02*
X131595238Y-78954819D01*
X131595238Y-78954819D02*
X132071428Y-78954819D01*
X133261905Y-79954819D02*
X133261905Y-78954819D01*
X133261905Y-78954819D02*
X133595238Y-79669104D01*
X133595238Y-79669104D02*
X133928571Y-78954819D01*
X133928571Y-78954819D02*
X133928571Y-79954819D01*
X134404762Y-79954819D02*
X134404762Y-78954819D01*
X135452380Y-79859580D02*
X135404761Y-79907200D01*
X135404761Y-79907200D02*
X135261904Y-79954819D01*
X135261904Y-79954819D02*
X135166666Y-79954819D01*
X135166666Y-79954819D02*
X135023809Y-79907200D01*
X135023809Y-79907200D02*
X134928571Y-79811961D01*
X134928571Y-79811961D02*
X134880952Y-79716723D01*
X134880952Y-79716723D02*
X134833333Y-79526247D01*
X134833333Y-79526247D02*
X134833333Y-79383390D01*
X134833333Y-79383390D02*
X134880952Y-79192914D01*
X134880952Y-79192914D02*
X134928571Y-79097676D01*
X134928571Y-79097676D02*
X135023809Y-79002438D01*
X135023809Y-79002438D02*
X135166666Y-78954819D01*
X135166666Y-78954819D02*
X135261904Y-78954819D01*
X135261904Y-78954819D02*
X135404761Y-79002438D01*
X135404761Y-79002438D02*
X135452380Y-79050057D01*
X135833333Y-79907200D02*
X135976190Y-79954819D01*
X135976190Y-79954819D02*
X136214285Y-79954819D01*
X136214285Y-79954819D02*
X136309523Y-79907200D01*
X136309523Y-79907200D02*
X136357142Y-79859580D01*
X136357142Y-79859580D02*
X136404761Y-79764342D01*
X136404761Y-79764342D02*
X136404761Y-79669104D01*
X136404761Y-79669104D02*
X136357142Y-79573866D01*
X136357142Y-79573866D02*
X136309523Y-79526247D01*
X136309523Y-79526247D02*
X136214285Y-79478628D01*
X136214285Y-79478628D02*
X136023809Y-79431009D01*
X136023809Y-79431009D02*
X135928571Y-79383390D01*
X135928571Y-79383390D02*
X135880952Y-79335771D01*
X135880952Y-79335771D02*
X135833333Y-79240533D01*
X135833333Y-79240533D02*
X135833333Y-79145295D01*
X135833333Y-79145295D02*
X135880952Y-79050057D01*
X135880952Y-79050057D02*
X135928571Y-79002438D01*
X135928571Y-79002438D02*
X136023809Y-78954819D01*
X136023809Y-78954819D02*
X136261904Y-78954819D01*
X136261904Y-78954819D02*
X136404761Y-79002438D01*
X97904761Y-79954819D02*
X97428571Y-79954819D01*
X97428571Y-79954819D02*
X97428571Y-78954819D01*
X98428571Y-78954819D02*
X98619047Y-78954819D01*
X98619047Y-78954819D02*
X98714285Y-79002438D01*
X98714285Y-79002438D02*
X98809523Y-79097676D01*
X98809523Y-79097676D02*
X98857142Y-79288152D01*
X98857142Y-79288152D02*
X98857142Y-79621485D01*
X98857142Y-79621485D02*
X98809523Y-79811961D01*
X98809523Y-79811961D02*
X98714285Y-79907200D01*
X98714285Y-79907200D02*
X98619047Y-79954819D01*
X98619047Y-79954819D02*
X98428571Y-79954819D01*
X98428571Y-79954819D02*
X98333333Y-79907200D01*
X98333333Y-79907200D02*
X98238095Y-79811961D01*
X98238095Y-79811961D02*
X98190476Y-79621485D01*
X98190476Y-79621485D02*
X98190476Y-79288152D01*
X98190476Y-79288152D02*
X98238095Y-79097676D01*
X98238095Y-79097676D02*
X98333333Y-79002438D01*
X98333333Y-79002438D02*
X98428571Y-78954819D01*
X99857142Y-79859580D02*
X99809523Y-79907200D01*
X99809523Y-79907200D02*
X99666666Y-79954819D01*
X99666666Y-79954819D02*
X99571428Y-79954819D01*
X99571428Y-79954819D02*
X99428571Y-79907200D01*
X99428571Y-79907200D02*
X99333333Y-79811961D01*
X99333333Y-79811961D02*
X99285714Y-79716723D01*
X99285714Y-79716723D02*
X99238095Y-79526247D01*
X99238095Y-79526247D02*
X99238095Y-79383390D01*
X99238095Y-79383390D02*
X99285714Y-79192914D01*
X99285714Y-79192914D02*
X99333333Y-79097676D01*
X99333333Y-79097676D02*
X99428571Y-79002438D01*
X99428571Y-79002438D02*
X99571428Y-78954819D01*
X99571428Y-78954819D02*
X99666666Y-78954819D01*
X99666666Y-78954819D02*
X99809523Y-79002438D01*
X99809523Y-79002438D02*
X99857142Y-79050057D01*
X100285714Y-79954819D02*
X100285714Y-78954819D01*
X100857142Y-79954819D02*
X100428571Y-79383390D01*
X100857142Y-78954819D02*
X100285714Y-79526247D01*
X102000000Y-79907200D02*
X102142857Y-79954819D01*
X102142857Y-79954819D02*
X102380952Y-79954819D01*
X102380952Y-79954819D02*
X102476190Y-79907200D01*
X102476190Y-79907200D02*
X102523809Y-79859580D01*
X102523809Y-79859580D02*
X102571428Y-79764342D01*
X102571428Y-79764342D02*
X102571428Y-79669104D01*
X102571428Y-79669104D02*
X102523809Y-79573866D01*
X102523809Y-79573866D02*
X102476190Y-79526247D01*
X102476190Y-79526247D02*
X102380952Y-79478628D01*
X102380952Y-79478628D02*
X102190476Y-79431009D01*
X102190476Y-79431009D02*
X102095238Y-79383390D01*
X102095238Y-79383390D02*
X102047619Y-79335771D01*
X102047619Y-79335771D02*
X102000000Y-79240533D01*
X102000000Y-79240533D02*
X102000000Y-79145295D01*
X102000000Y-79145295D02*
X102047619Y-79050057D01*
X102047619Y-79050057D02*
X102095238Y-79002438D01*
X102095238Y-79002438D02*
X102190476Y-78954819D01*
X102190476Y-78954819D02*
X102428571Y-78954819D01*
X102428571Y-78954819D02*
X102571428Y-79002438D01*
X103571428Y-79859580D02*
X103523809Y-79907200D01*
X103523809Y-79907200D02*
X103380952Y-79954819D01*
X103380952Y-79954819D02*
X103285714Y-79954819D01*
X103285714Y-79954819D02*
X103142857Y-79907200D01*
X103142857Y-79907200D02*
X103047619Y-79811961D01*
X103047619Y-79811961D02*
X103000000Y-79716723D01*
X103000000Y-79716723D02*
X102952381Y-79526247D01*
X102952381Y-79526247D02*
X102952381Y-79383390D01*
X102952381Y-79383390D02*
X103000000Y-79192914D01*
X103000000Y-79192914D02*
X103047619Y-79097676D01*
X103047619Y-79097676D02*
X103142857Y-79002438D01*
X103142857Y-79002438D02*
X103285714Y-78954819D01*
X103285714Y-78954819D02*
X103380952Y-78954819D01*
X103380952Y-78954819D02*
X103523809Y-79002438D01*
X103523809Y-79002438D02*
X103571428Y-79050057D01*
X104571428Y-79954819D02*
X104238095Y-79478628D01*
X104000000Y-79954819D02*
X104000000Y-78954819D01*
X104000000Y-78954819D02*
X104380952Y-78954819D01*
X104380952Y-78954819D02*
X104476190Y-79002438D01*
X104476190Y-79002438D02*
X104523809Y-79050057D01*
X104523809Y-79050057D02*
X104571428Y-79145295D01*
X104571428Y-79145295D02*
X104571428Y-79288152D01*
X104571428Y-79288152D02*
X104523809Y-79383390D01*
X104523809Y-79383390D02*
X104476190Y-79431009D01*
X104476190Y-79431009D02*
X104380952Y-79478628D01*
X104380952Y-79478628D02*
X104000000Y-79478628D01*
X105000000Y-79954819D02*
X105000000Y-78954819D01*
X105000000Y-78954819D02*
X105571428Y-79954819D01*
X105571428Y-79954819D02*
X105571428Y-78954819D01*
X113166666Y-79431009D02*
X113309523Y-79478628D01*
X113309523Y-79478628D02*
X113357142Y-79526247D01*
X113357142Y-79526247D02*
X113404761Y-79621485D01*
X113404761Y-79621485D02*
X113404761Y-79764342D01*
X113404761Y-79764342D02*
X113357142Y-79859580D01*
X113357142Y-79859580D02*
X113309523Y-79907200D01*
X113309523Y-79907200D02*
X113214285Y-79954819D01*
X113214285Y-79954819D02*
X112833333Y-79954819D01*
X112833333Y-79954819D02*
X112833333Y-78954819D01*
X112833333Y-78954819D02*
X113166666Y-78954819D01*
X113166666Y-78954819D02*
X113261904Y-79002438D01*
X113261904Y-79002438D02*
X113309523Y-79050057D01*
X113309523Y-79050057D02*
X113357142Y-79145295D01*
X113357142Y-79145295D02*
X113357142Y-79240533D01*
X113357142Y-79240533D02*
X113309523Y-79335771D01*
X113309523Y-79335771D02*
X113261904Y-79383390D01*
X113261904Y-79383390D02*
X113166666Y-79431009D01*
X113166666Y-79431009D02*
X112833333Y-79431009D01*
X114023809Y-78954819D02*
X114214285Y-78954819D01*
X114214285Y-78954819D02*
X114309523Y-79002438D01*
X114309523Y-79002438D02*
X114404761Y-79097676D01*
X114404761Y-79097676D02*
X114452380Y-79288152D01*
X114452380Y-79288152D02*
X114452380Y-79621485D01*
X114452380Y-79621485D02*
X114404761Y-79811961D01*
X114404761Y-79811961D02*
X114309523Y-79907200D01*
X114309523Y-79907200D02*
X114214285Y-79954819D01*
X114214285Y-79954819D02*
X114023809Y-79954819D01*
X114023809Y-79954819D02*
X113928571Y-79907200D01*
X113928571Y-79907200D02*
X113833333Y-79811961D01*
X113833333Y-79811961D02*
X113785714Y-79621485D01*
X113785714Y-79621485D02*
X113785714Y-79288152D01*
X113785714Y-79288152D02*
X113833333Y-79097676D01*
X113833333Y-79097676D02*
X113928571Y-79002438D01*
X113928571Y-79002438D02*
X114023809Y-78954819D01*
X114833333Y-79907200D02*
X114976190Y-79954819D01*
X114976190Y-79954819D02*
X115214285Y-79954819D01*
X115214285Y-79954819D02*
X115309523Y-79907200D01*
X115309523Y-79907200D02*
X115357142Y-79859580D01*
X115357142Y-79859580D02*
X115404761Y-79764342D01*
X115404761Y-79764342D02*
X115404761Y-79669104D01*
X115404761Y-79669104D02*
X115357142Y-79573866D01*
X115357142Y-79573866D02*
X115309523Y-79526247D01*
X115309523Y-79526247D02*
X115214285Y-79478628D01*
X115214285Y-79478628D02*
X115023809Y-79431009D01*
X115023809Y-79431009D02*
X114928571Y-79383390D01*
X114928571Y-79383390D02*
X114880952Y-79335771D01*
X114880952Y-79335771D02*
X114833333Y-79240533D01*
X114833333Y-79240533D02*
X114833333Y-79145295D01*
X114833333Y-79145295D02*
X114880952Y-79050057D01*
X114880952Y-79050057D02*
X114928571Y-79002438D01*
X114928571Y-79002438D02*
X115023809Y-78954819D01*
X115023809Y-78954819D02*
X115261904Y-78954819D01*
X115261904Y-78954819D02*
X115404761Y-79002438D01*
X115785714Y-79907200D02*
X115928571Y-79954819D01*
X115928571Y-79954819D02*
X116166666Y-79954819D01*
X116166666Y-79954819D02*
X116261904Y-79907200D01*
X116261904Y-79907200D02*
X116309523Y-79859580D01*
X116309523Y-79859580D02*
X116357142Y-79764342D01*
X116357142Y-79764342D02*
X116357142Y-79669104D01*
X116357142Y-79669104D02*
X116309523Y-79573866D01*
X116309523Y-79573866D02*
X116261904Y-79526247D01*
X116261904Y-79526247D02*
X116166666Y-79478628D01*
X116166666Y-79478628D02*
X115976190Y-79431009D01*
X115976190Y-79431009D02*
X115880952Y-79383390D01*
X115880952Y-79383390D02*
X115833333Y-79335771D01*
X115833333Y-79335771D02*
X115785714Y-79240533D01*
X115785714Y-79240533D02*
X115785714Y-79145295D01*
X115785714Y-79145295D02*
X115833333Y-79050057D01*
X115833333Y-79050057D02*
X115880952Y-79002438D01*
X115880952Y-79002438D02*
X115976190Y-78954819D01*
X115976190Y-78954819D02*
X116214285Y-78954819D01*
X116214285Y-78954819D02*
X116357142Y-79002438D01*
X117547619Y-79954819D02*
X117547619Y-78954819D01*
X117547619Y-78954819D02*
X117880952Y-79669104D01*
X117880952Y-79669104D02*
X118214285Y-78954819D01*
X118214285Y-78954819D02*
X118214285Y-79954819D01*
X118880952Y-78954819D02*
X119071428Y-78954819D01*
X119071428Y-78954819D02*
X119166666Y-79002438D01*
X119166666Y-79002438D02*
X119261904Y-79097676D01*
X119261904Y-79097676D02*
X119309523Y-79288152D01*
X119309523Y-79288152D02*
X119309523Y-79621485D01*
X119309523Y-79621485D02*
X119261904Y-79811961D01*
X119261904Y-79811961D02*
X119166666Y-79907200D01*
X119166666Y-79907200D02*
X119071428Y-79954819D01*
X119071428Y-79954819D02*
X118880952Y-79954819D01*
X118880952Y-79954819D02*
X118785714Y-79907200D01*
X118785714Y-79907200D02*
X118690476Y-79811961D01*
X118690476Y-79811961D02*
X118642857Y-79621485D01*
X118642857Y-79621485D02*
X118642857Y-79288152D01*
X118642857Y-79288152D02*
X118690476Y-79097676D01*
X118690476Y-79097676D02*
X118785714Y-79002438D01*
X118785714Y-79002438D02*
X118880952Y-78954819D01*
X119738095Y-79954819D02*
X119738095Y-78954819D01*
X119738095Y-78954819D02*
X119976190Y-78954819D01*
X119976190Y-78954819D02*
X120119047Y-79002438D01*
X120119047Y-79002438D02*
X120214285Y-79097676D01*
X120214285Y-79097676D02*
X120261904Y-79192914D01*
X120261904Y-79192914D02*
X120309523Y-79383390D01*
X120309523Y-79383390D02*
X120309523Y-79526247D01*
X120309523Y-79526247D02*
X120261904Y-79716723D01*
X120261904Y-79716723D02*
X120214285Y-79811961D01*
X120214285Y-79811961D02*
X120119047Y-79907200D01*
X120119047Y-79907200D02*
X119976190Y-79954819D01*
X119976190Y-79954819D02*
X119738095Y-79954819D01*
X120738095Y-79431009D02*
X121071428Y-79431009D01*
X121214285Y-79954819D02*
X120738095Y-79954819D01*
X120738095Y-79954819D02*
X120738095Y-78954819D01*
X120738095Y-78954819D02*
X121214285Y-78954819D01*
X88721905Y-74454819D02*
X88721905Y-73454819D01*
X88721905Y-73454819D02*
X88960000Y-73454819D01*
X88960000Y-73454819D02*
X89102857Y-73502438D01*
X89102857Y-73502438D02*
X89198095Y-73597676D01*
X89198095Y-73597676D02*
X89245714Y-73692914D01*
X89245714Y-73692914D02*
X89293333Y-73883390D01*
X89293333Y-73883390D02*
X89293333Y-74026247D01*
X89293333Y-74026247D02*
X89245714Y-74216723D01*
X89245714Y-74216723D02*
X89198095Y-74311961D01*
X89198095Y-74311961D02*
X89102857Y-74407200D01*
X89102857Y-74407200D02*
X88960000Y-74454819D01*
X88960000Y-74454819D02*
X88721905Y-74454819D01*
X90245714Y-74454819D02*
X89674286Y-74454819D01*
X89960000Y-74454819D02*
X89960000Y-73454819D01*
X89960000Y-73454819D02*
X89864762Y-73597676D01*
X89864762Y-73597676D02*
X89769524Y-73692914D01*
X89769524Y-73692914D02*
X89674286Y-73740533D01*
X63994819Y-63603333D02*
X64709104Y-63603333D01*
X64709104Y-63603333D02*
X64851961Y-63650952D01*
X64851961Y-63650952D02*
X64947200Y-63746190D01*
X64947200Y-63746190D02*
X64994819Y-63889047D01*
X64994819Y-63889047D02*
X64994819Y-63984285D01*
X64090057Y-63174761D02*
X64042438Y-63127142D01*
X64042438Y-63127142D02*
X63994819Y-63031904D01*
X63994819Y-63031904D02*
X63994819Y-62793809D01*
X63994819Y-62793809D02*
X64042438Y-62698571D01*
X64042438Y-62698571D02*
X64090057Y-62650952D01*
X64090057Y-62650952D02*
X64185295Y-62603333D01*
X64185295Y-62603333D02*
X64280533Y-62603333D01*
X64280533Y-62603333D02*
X64423390Y-62650952D01*
X64423390Y-62650952D02*
X64994819Y-63222380D01*
X64994819Y-63222380D02*
X64994819Y-62603333D01*
D11*
%TO.C,MUTE MICS*%
X126300000Y-63900000D02*
X127900000Y-62300000D01*
X126300000Y-73100000D02*
X126300000Y-63900000D01*
X127900000Y-74700000D02*
X126300000Y-73100000D01*
X129050000Y-62300000D02*
X127900000Y-62300000D01*
X129050000Y-74700000D02*
X127900000Y-74700000D01*
X130950000Y-62300000D02*
X134050000Y-62300000D01*
X130950000Y-74700000D02*
X134050000Y-74700000D01*
X135950000Y-62300000D02*
X137100000Y-62300000D01*
X135950000Y-74700000D02*
X137100000Y-74700000D01*
X137100000Y-74700000D02*
X138700000Y-73100000D01*
X138700000Y-63900000D02*
X137100000Y-62300000D01*
X138700000Y-73100000D02*
X138700000Y-63900000D01*
D12*
%TO.C,U1*%
X27356500Y-64572000D02*
X34659000Y-64572000D01*
X27356500Y-73208000D02*
X27356500Y-64572000D01*
X28690000Y-60000000D02*
X31230000Y-60000000D01*
X28690000Y-63810000D02*
X28690000Y-60000000D01*
X28690000Y-73970000D02*
X28690000Y-77780000D01*
X28690000Y-77780000D02*
X31230000Y-77780000D01*
X34659000Y-64572000D02*
X34659000Y-73208000D01*
X34659000Y-73208000D02*
X27356500Y-73208000D01*
X42787000Y-68890000D02*
X47740000Y-73843000D01*
X47740000Y-63937000D02*
X42787000Y-68890000D01*
X47740000Y-73843000D02*
X52693000Y-68890000D01*
X52693000Y-68890000D02*
X47740000Y-63937000D01*
X61710000Y-60000000D02*
X61710000Y-77780000D01*
X27356500Y-64572000D02*
G75*
G02*
X27356500Y-73208000I-24145871J-4318000D01*
G01*
D11*
%TO.C,R3*%
X69762742Y-74477500D02*
X70237258Y-74477500D01*
X69762742Y-75522500D02*
X70237258Y-75522500D01*
%TO.C,LOCK SCRN*%
X95250000Y-64250000D02*
X96850000Y-62650000D01*
X95250000Y-73450000D02*
X95250000Y-64250000D01*
X96850000Y-75050000D02*
X95250000Y-73450000D01*
X98000000Y-62650000D02*
X96850000Y-62650000D01*
X98000000Y-75050000D02*
X96850000Y-75050000D01*
X99900000Y-62650000D02*
X103000000Y-62650000D01*
X99900000Y-75050000D02*
X103000000Y-75050000D01*
X104900000Y-62650000D02*
X106050000Y-62650000D01*
X104900000Y-75050000D02*
X106050000Y-75050000D01*
X106050000Y-75050000D02*
X107650000Y-73450000D01*
X107650000Y-64250000D02*
X106050000Y-62650000D01*
X107650000Y-73450000D02*
X107650000Y-64250000D01*
%TO.C,R1*%
X69762742Y-71477500D02*
X70237258Y-71477500D01*
X69762742Y-72522500D02*
X70237258Y-72522500D01*
%TO.C,BOSS MODE*%
X110800000Y-64250000D02*
X112400000Y-62650000D01*
X110800000Y-73450000D02*
X110800000Y-64250000D01*
X112400000Y-75050000D02*
X110800000Y-73450000D01*
X113550000Y-62650000D02*
X112400000Y-62650000D01*
X113550000Y-75050000D02*
X112400000Y-75050000D01*
X115450000Y-62650000D02*
X118550000Y-62650000D01*
X115450000Y-75050000D02*
X118550000Y-75050000D01*
X120450000Y-62650000D02*
X121600000Y-62650000D01*
X120450000Y-75050000D02*
X121600000Y-75050000D01*
X121600000Y-75050000D02*
X123200000Y-73450000D01*
X123200000Y-64250000D02*
X121600000Y-62650000D01*
X123200000Y-73450000D02*
X123200000Y-64250000D01*
%TO.C,D1*%
X85245000Y-64825000D02*
X86735000Y-64825000D01*
X85245000Y-66315000D02*
X85245000Y-64825000D01*
X85485000Y-65065000D02*
X85485000Y-73015000D01*
X85485000Y-73015000D02*
X93435000Y-73015000D01*
X93435000Y-65065000D02*
X85485000Y-65065000D01*
X93435000Y-73015000D02*
X93435000Y-65065000D01*
%TO.C,R2*%
X69762742Y-72977500D02*
X70237258Y-72977500D01*
X69762742Y-74022500D02*
X70237258Y-74022500D01*
%TO.C,J2*%
X65540000Y-60620000D02*
X73380000Y-60620000D01*
X65540000Y-63270000D02*
X65540000Y-60620000D01*
X65540000Y-65920000D02*
X65540000Y-64540000D01*
X66920000Y-65920000D02*
X65540000Y-65920000D01*
X68190000Y-63270000D02*
X65540000Y-63270000D01*
X68190000Y-65920000D02*
X68190000Y-63270000D01*
X68190000Y-65920000D02*
X73380000Y-65920000D01*
X73380000Y-65920000D02*
X73380000Y-60620000D01*
%TD*%
M02*
