%TF.GenerationSoftware,KiCad,Pcbnew,9.0.7-9.0.7~ubuntu24.04.1*%
%TF.CreationDate,2026-02-24T02:36:53-05:00*%
%TF.ProjectId,null-key,6e756c6c-2d6b-4657-992e-6b696361645f,rev?*%
%TF.SameCoordinates,Original*%
%TF.FileFunction,Copper,L1,Top*%
%TF.FilePolarity,Positive*%
%FSLAX46Y46*%
G04 Gerber Fmt 4.6, Leading zero omitted, Abs format (unit mm)*
G04 Created by KiCad (PCBNEW 9.0.7-9.0.7~ubuntu24.04.1) date 2026-02-24 02:36:53*
%MOMM*%
%LPD*%
G01*
G04 APERTURE LIST*
G04 Aperture macros list*
%AMRoundRect*
0 Rectangle with rounded corners*
0 $1 Rounding radius*
0 $2 $3 $4 $5 $6 $7 $8 $9 X,Y pos of 4 corners*
0 Add a 4 corners polygon primitive as box body*
4,1,4,$2,$3,$4,$5,$6,$7,$8,$9,$2,$3,0*
0 Add four circle primitives for the rounded corners*
1,1,$1+$1,$2,$3*
1,1,$1+$1,$4,$5*
1,1,$1+$1,$6,$7*
1,1,$1+$1,$8,$9*
0 Add four rect primitives between the rounded corners*
20,1,$1+$1,$2,$3,$4,$5,0*
20,1,$1+$1,$4,$5,$6,$7,0*
20,1,$1+$1,$6,$7,$8,$9,0*
20,1,$1+$1,$8,$9,$2,$3,0*%
G04 Aperture macros list end*
%TA.AperFunction,SMDPad,CuDef*%
%ADD10RoundRect,0.250000X0.500000X-0.750000X0.500000X0.750000X-0.500000X0.750000X-0.500000X-0.750000X0*%
%TD*%
%TA.AperFunction,SMDPad,CuDef*%
%ADD11RoundRect,0.635000X0.000010X-0.635000X0.000010X0.635000X-0.000010X0.635000X-0.000010X-0.635000X0*%
%TD*%
%TA.AperFunction,SMDPad,CuDef*%
%ADD12RoundRect,0.200000X-0.200000X-0.275000X0.200000X-0.275000X0.200000X0.275000X-0.200000X0.275000X0*%
%TD*%
%TA.AperFunction,ComponentPad*%
%ADD13C,1.879600*%
%TD*%
%TA.AperFunction,ComponentPad*%
%ADD14R,2.350000X2.350000*%
%TD*%
%TA.AperFunction,ComponentPad*%
%ADD15C,2.350000*%
%TD*%
%TA.AperFunction,ComponentPad*%
%ADD16R,1.700000X1.700000*%
%TD*%
%TA.AperFunction,ComponentPad*%
%ADD17C,1.700000*%
%TD*%
%TA.AperFunction,ViaPad*%
%ADD18C,0.300000*%
%TD*%
%TA.AperFunction,ViaPad*%
%ADD19C,0.600000*%
%TD*%
%TA.AperFunction,ViaPad*%
%ADD20C,0.500000*%
%TD*%
%TA.AperFunction,Conductor*%
%ADD21C,0.200000*%
%TD*%
%TA.AperFunction,Conductor*%
%ADD22C,0.500000*%
%TD*%
G04 APERTURE END LIST*
D10*
%TO.P,MUTE MICS,1,1*%
%TO.N,GND*%
X130000000Y-75650000D03*
X130000000Y-61350000D03*
%TO.P,MUTE MICS,2,2*%
%TO.N,/SW1 MUTE MICS*%
X135000000Y-75650000D03*
X135000000Y-61350000D03*
%TD*%
D11*
%TO.P,U1,1,TX*%
%TO.N,/J1 1TX*%
X32500000Y-77780000D03*
%TO.P,U1,2,RX*%
%TO.N,/J1 2RX*%
X35040000Y-77780000D03*
%TO.P,U1,3,GND*%
%TO.N,GND*%
X37580000Y-77780000D03*
%TO.P,U1,4,GND*%
X40120000Y-77780000D03*
%TO.P,U1,5,D2*%
%TO.N,/SW1 MUTE MICS*%
X42660000Y-77780000D03*
%TO.P,U1,6,D3*%
%TO.N,/D1 RED*%
X45200000Y-77780000D03*
%TO.P,U1,7,D4/A6*%
%TO.N,unconnected-(U1-D4{slash}A6-Pad7)*%
X47740000Y-77780000D03*
%TO.P,U1,8,D5*%
%TO.N,/SW2 BOSS MODE*%
X50280000Y-77780000D03*
%TO.P,U1,9,D6/A7*%
%TO.N,/D2 GREEN*%
X52820000Y-77780000D03*
%TO.P,U1,10,D7*%
%TO.N,/D3 BLUE*%
X55360000Y-77780000D03*
%TO.P,U1,11,D8/A8*%
%TO.N,/SW3 LOCK SCRN*%
X57900000Y-77780000D03*
%TO.P,U1,12,D9/A9*%
%TO.N,unconnected-(U1-D9{slash}A9-Pad12)*%
X60440000Y-77780000D03*
%TO.P,U1,13,D10/A10*%
%TO.N,unconnected-(U1-D10{slash}A10-Pad13)*%
X60440000Y-60000000D03*
%TO.P,U1,14,D16*%
%TO.N,/D16 MOSI*%
X57900000Y-60000000D03*
%TO.P,U1,15,D14*%
%TO.N,/D14 MISO*%
X55360000Y-60000000D03*
%TO.P,U1,16,D15*%
%TO.N,/D15 SCK{slash}CLOCK*%
X52820000Y-60000000D03*
%TO.P,U1,17,A0*%
%TO.N,unconnected-(U1-A0-Pad17)*%
X50280000Y-60000000D03*
%TO.P,U1,18,A1*%
%TO.N,unconnected-(U1-A1-Pad18)*%
X47740000Y-60000000D03*
%TO.P,U1,19,A2*%
%TO.N,unconnected-(U1-A2-Pad19)*%
X45200000Y-60000000D03*
%TO.P,U1,20,A3*%
%TO.N,unconnected-(U1-A3-Pad20)*%
X42660000Y-60000000D03*
%TO.P,U1,21,5V*%
%TO.N,+5V*%
X40120000Y-60000000D03*
%TO.P,U1,22,RST*%
%TO.N,/TC3 RESET*%
X37580000Y-60000000D03*
%TO.P,U1,23,GND*%
%TO.N,GND*%
X35040000Y-60000000D03*
%TO.P,U1,24,RAW*%
%TO.N,unconnected-(U1-RAW-Pad24)*%
X32500000Y-60000000D03*
%TD*%
D12*
%TO.P,R3,1*%
%TO.N,/D3 BLUE*%
X69175000Y-75000000D03*
%TO.P,R3,2*%
%TO.N,Net-(D1-BK)*%
X70825000Y-75000000D03*
%TD*%
D10*
%TO.P,LOCK SCRN,1,1*%
%TO.N,GND*%
X98950000Y-76000000D03*
X98950000Y-61700000D03*
%TO.P,LOCK SCRN,2,2*%
%TO.N,/SW3 LOCK SCRN*%
X103950000Y-76000000D03*
X103950000Y-61700000D03*
%TD*%
D12*
%TO.P,R1,1*%
%TO.N,/D1 RED*%
X69175000Y-72000000D03*
%TO.P,R1,2*%
%TO.N,Net-(D1-RK)*%
X70825000Y-72000000D03*
%TD*%
D10*
%TO.P,BOSS MODE,1,1*%
%TO.N,GND*%
X114500000Y-76000000D03*
X114500000Y-61700000D03*
%TO.P,BOSS MODE,2,2*%
%TO.N,/SW2 BOSS MODE*%
X119500000Y-76000000D03*
X119500000Y-61700000D03*
%TD*%
D13*
%TO.P,J1,1,Pin_1*%
%TO.N,/J1 1TX*%
X76972700Y-64500000D03*
%TO.P,J1,2,Pin_2*%
%TO.N,/J1 2RX*%
X79512700Y-64627000D03*
%TO.P,J1,3,Pin_3*%
%TO.N,GND*%
X82052700Y-64373000D03*
%TD*%
D14*
%TO.P,D1,1,RK*%
%TO.N,Net-(D1-RK)*%
X86920000Y-66500000D03*
D15*
%TO.P,D1,2,GK*%
%TO.N,Net-(D1-GK)*%
X86920000Y-71580000D03*
%TO.P,D1,3,BK*%
%TO.N,Net-(D1-BK)*%
X92000000Y-71580000D03*
%TO.P,D1,4,A*%
%TO.N,+5V*%
X92000000Y-66500000D03*
%TD*%
D12*
%TO.P,R2,1*%
%TO.N,/D2 GREEN*%
X69175000Y-73500000D03*
%TO.P,R2,2*%
%TO.N,Net-(D1-GK)*%
X70825000Y-73500000D03*
%TD*%
D16*
%TO.P,J2,1,Pin_1*%
%TO.N,/D14 MISO*%
X66920000Y-64540000D03*
D17*
%TO.P,J2,2,Pin_2*%
%TO.N,+5V*%
X66920000Y-62000000D03*
%TO.P,J2,3,Pin_3*%
%TO.N,/D15 SCK{slash}CLOCK*%
X69460000Y-64540000D03*
%TO.P,J2,4,Pin_4*%
%TO.N,/D16 MOSI*%
X69460000Y-62000000D03*
%TO.P,J2,5,Pin_5*%
%TO.N,/TC3 RESET*%
X72000000Y-64540000D03*
%TO.P,J2,6,Pin_6*%
%TO.N,GND*%
X72000000Y-62000000D03*
%TD*%
D18*
%TO.N,+5V*%
X86500000Y-62000000D03*
D19*
X40750000Y-57250000D03*
X64500000Y-59500000D03*
D20*
%TO.N,GND*%
X114500000Y-78000000D03*
X99000000Y-78000000D03*
X130000000Y-78000000D03*
%TD*%
D21*
%TO.N,/J1 2RX*%
X71500000Y-71000000D02*
X75000000Y-67500000D01*
%TO.N,/TC3 RESET*%
X72000000Y-66000000D02*
X69000000Y-69000000D01*
X72000000Y-64540000D02*
X72000000Y-66000000D01*
X69000000Y-69000000D02*
X41500000Y-69000000D01*
%TO.N,/D14 MISO*%
X66920000Y-64540000D02*
X66920000Y-66080000D01*
X55360000Y-64360000D02*
X55360000Y-60000000D01*
X66920000Y-66080000D02*
X66000000Y-67000000D01*
X66000000Y-67000000D02*
X58000000Y-67000000D01*
X58000000Y-67000000D02*
X55360000Y-64360000D01*
%TO.N,Net-(D1-GK)*%
X70825000Y-73500000D02*
X86000000Y-73500000D01*
X86000000Y-73500000D02*
X86920000Y-72580000D01*
X86920000Y-72580000D02*
X86920000Y-71580000D01*
%TO.N,Net-(D1-RK)*%
X70825000Y-72000000D02*
X83500000Y-72000000D01*
X83500000Y-72000000D02*
X86920000Y-68580000D01*
X86920000Y-68580000D02*
X86920000Y-66500000D01*
%TO.N,Net-(D1-BK)*%
X92000000Y-71580000D02*
X92000000Y-73500000D01*
X90500000Y-75000000D02*
X70825000Y-75000000D01*
X92000000Y-73500000D02*
X90500000Y-75000000D01*
D22*
%TO.N,+5V*%
X92000000Y-64500000D02*
X92000000Y-66500000D01*
X66920000Y-60420000D02*
X66920000Y-62000000D01*
X64500000Y-59500000D02*
X66000000Y-59500000D01*
D21*
%TO.N,/D14 MISO*%
X55000000Y-59000000D02*
X55000000Y-60000000D01*
D22*
%TO.N,+5V*%
X89500000Y-62000000D02*
X86500000Y-62000000D01*
X66000000Y-59500000D02*
X66920000Y-60420000D01*
X40120000Y-59640000D02*
X40000000Y-59760000D01*
X40120000Y-57880000D02*
X40120000Y-60000000D01*
X89500000Y-62000000D02*
X92000000Y-64500000D01*
X40750000Y-57250000D02*
X40120000Y-57880000D01*
%TO.N,GND*%
X130000000Y-61350000D02*
X130000000Y-60500000D01*
X78000000Y-55500000D02*
X75105400Y-55500000D01*
X111450000Y-58500000D02*
X102000000Y-58500000D01*
X38500000Y-81000000D02*
X36000000Y-81000000D01*
X74000000Y-55500000D02*
X66500000Y-55500000D01*
X40120000Y-79380000D02*
X38500000Y-81000000D01*
X40120000Y-77780000D02*
X40120000Y-79380000D01*
X82052700Y-64373000D02*
X82052700Y-62447300D01*
X81000000Y-58500000D02*
X78000000Y-55500000D01*
X82052700Y-62447300D02*
X78302700Y-58697300D01*
X114500000Y-61550000D02*
X111450000Y-58500000D01*
X99000000Y-61500000D02*
X96000000Y-58500000D01*
D21*
%TO.N,/TC3 RESET*%
X41500000Y-69000000D02*
X37500000Y-65000000D01*
D22*
%TO.N,GND*%
X30000000Y-79500000D02*
X30000000Y-66500000D01*
X37000000Y-55500000D02*
X35040000Y-57460000D01*
D21*
%TO.N,/J1 2RX*%
X35040000Y-77420000D02*
X35040000Y-74960000D01*
D22*
%TO.N,GND*%
X36000000Y-81000000D02*
X31500000Y-81000000D01*
D21*
%TO.N,/TC3 RESET*%
X37500000Y-65000000D02*
X37500000Y-60080000D01*
D22*
%TO.N,GND*%
X66500000Y-55500000D02*
X68500000Y-55500000D01*
X66500000Y-55500000D02*
X37000000Y-55500000D01*
X130000000Y-75650000D02*
X130000000Y-61350000D01*
D21*
%TO.N,/J1 2RX*%
X79512700Y-65987300D02*
X79512700Y-64627000D01*
X75000000Y-67500000D02*
X78000000Y-67500000D01*
D22*
%TO.N,GND*%
X40120000Y-77780000D02*
X39760000Y-78140000D01*
X37580000Y-77780000D02*
X37580000Y-79420000D01*
D21*
%TO.N,/J1 2RX*%
X39000000Y-71000000D02*
X71500000Y-71000000D01*
D22*
%TO.N,GND*%
X31500000Y-81000000D02*
X30000000Y-79500000D01*
D21*
%TO.N,/J1 2RX*%
X35040000Y-74960000D02*
X39000000Y-71000000D01*
D22*
%TO.N,GND*%
X72000000Y-59000000D02*
X72000000Y-62000000D01*
D21*
%TO.N,/J1 2RX*%
X34680000Y-77780000D02*
X35040000Y-77420000D01*
%TO.N,GND*%
X37220000Y-78220000D02*
X37000000Y-78000000D01*
D22*
X37580000Y-79420000D02*
X36000000Y-81000000D01*
D21*
%TO.N,/J1 2RX*%
X78000000Y-67500000D02*
X79512700Y-65987300D01*
D22*
%TO.N,GND*%
X128000000Y-58500000D02*
X117500000Y-58500000D01*
X130000000Y-75650000D02*
X130000000Y-78000000D01*
X96000000Y-58500000D02*
X81000000Y-58500000D01*
X78302700Y-58697300D02*
X75105400Y-55500000D01*
X130000000Y-60500000D02*
X128000000Y-58500000D01*
X35040000Y-57460000D02*
X35040000Y-60000000D01*
X99000000Y-76150000D02*
X99000000Y-78000000D01*
X75105400Y-55500000D02*
X74000000Y-55500000D01*
D21*
%TO.N,/TC3 RESET*%
X37500000Y-60080000D02*
X37580000Y-60000000D01*
D22*
%TO.N,GND*%
X68500000Y-55500000D02*
X72000000Y-59000000D01*
X117500000Y-58500000D02*
X114500000Y-61500000D01*
X35040000Y-61460000D02*
X35040000Y-60000000D01*
X30000000Y-66500000D02*
X35040000Y-61460000D01*
X114500000Y-75850000D02*
X114500000Y-78000000D01*
X102000000Y-58500000D02*
X99000000Y-61500000D01*
X114500000Y-61500000D02*
X114500000Y-61550000D01*
D21*
%TO.N,/D1 RED*%
X48000000Y-72000000D02*
X45000000Y-75000000D01*
X45000000Y-75000000D02*
X45000000Y-77580000D01*
X45000000Y-77580000D02*
X45200000Y-77780000D01*
X45200000Y-77780000D02*
X44840000Y-77780000D01*
X69175000Y-72000000D02*
X48000000Y-72000000D01*
%TO.N,/D2 GREEN*%
X52460000Y-77780000D02*
X52820000Y-77420000D01*
X54000000Y-73500000D02*
X69175000Y-73500000D01*
X52820000Y-74680000D02*
X54000000Y-73500000D01*
X52820000Y-77420000D02*
X52820000Y-74680000D01*
%TO.N,/D3 BLUE*%
X69175000Y-75000000D02*
X56000000Y-75000000D01*
X56000000Y-75000000D02*
X55360000Y-75640000D01*
X55360000Y-77780000D02*
X55000000Y-77780000D01*
X55360000Y-75640000D02*
X55360000Y-77780000D01*
%TO.N,/SW1 MUTE MICS*%
X42660000Y-78140000D02*
X42300000Y-77780000D01*
X44000000Y-82000000D02*
X42660000Y-80660000D01*
X135000000Y-61350000D02*
X135000000Y-75650000D01*
X133000000Y-82000000D02*
X44000000Y-82000000D01*
X42660000Y-80660000D02*
X42660000Y-78140000D01*
X135000000Y-75650000D02*
X135000000Y-80000000D01*
X135000000Y-80000000D02*
X133000000Y-82000000D01*
%TO.N,/SW2 BOSS MODE*%
X117500000Y-81000000D02*
X51500000Y-81000000D01*
X51500000Y-81000000D02*
X50280000Y-79780000D01*
X119500000Y-75850000D02*
X119500000Y-79000000D01*
X50280000Y-79780000D02*
X50280000Y-78140000D01*
X50280000Y-78140000D02*
X49920000Y-77780000D01*
X119500000Y-61550000D02*
X119500000Y-75850000D01*
X119500000Y-79000000D02*
X117500000Y-81000000D01*
%TO.N,/SW3 LOCK SCRN*%
X57900000Y-79150000D02*
X57900000Y-77780000D01*
X57900000Y-77780000D02*
X57540000Y-77780000D01*
X104000000Y-78500000D02*
X102500000Y-80000000D01*
X104000000Y-61850000D02*
X104000000Y-76150000D01*
X102500000Y-80000000D02*
X58750000Y-80000000D01*
X104000000Y-76150000D02*
X104000000Y-78500000D01*
X58750000Y-80000000D02*
X57900000Y-79150000D01*
%TO.N,/J1 1TX*%
X76972700Y-66027300D02*
X76972700Y-64500000D01*
X76500000Y-66500000D02*
X76972700Y-66027300D01*
X32500000Y-75000000D02*
X37500000Y-70000000D01*
X74000000Y-66500000D02*
X76500000Y-66500000D01*
X37500000Y-70000000D02*
X70500000Y-70000000D01*
X70500000Y-70000000D02*
X74000000Y-66500000D01*
X32500000Y-77780000D02*
X32500000Y-75000000D01*
%TO.N,/D16 MOSI*%
X69460000Y-58960000D02*
X69460000Y-62000000D01*
X57900000Y-60000000D02*
X57900000Y-58100000D01*
%TO.N,/D15 SCK{slash}CLOCK*%
X52540000Y-60000000D02*
X52500000Y-60040000D01*
X67500000Y-68000000D02*
X56500000Y-68000000D01*
X56500000Y-68000000D02*
X52820000Y-64320000D01*
X69460000Y-64540000D02*
X69500000Y-64580000D01*
%TO.N,/D16 MOSI*%
X57900000Y-58100000D02*
X59500000Y-56500000D01*
%TO.N,/D15 SCK{slash}CLOCK*%
X52820000Y-60000000D02*
X52540000Y-60000000D01*
X69460000Y-64540000D02*
X69460000Y-66040000D01*
X52820000Y-64320000D02*
X52820000Y-60000000D01*
%TO.N,/D16 MOSI*%
X67000000Y-56500000D02*
X69460000Y-58960000D01*
%TO.N,/D15 SCK{slash}CLOCK*%
X69460000Y-66040000D02*
X67500000Y-68000000D01*
%TO.N,/D16 MOSI*%
X59500000Y-56500000D02*
X67000000Y-56500000D01*
%TD*%
M02*
